<svg width="292" height="70" viewBox="0 0 292 70" fill="none" xmlns="http://www.w3.org/2000/svg">
<path d="M32.5768 37.443H43.4418L40.2618 53.449C38.2831 54.8623 36.0041 55.9577 33.4248 56.735C30.8808 57.477 28.1424 57.848 25.2098 57.848C21.4291 57.848 18.0901 57.159 15.1928 55.781C12.3308 54.3677 10.1048 52.4067 8.51477 49.898C6.9601 47.3893 6.18277 44.5097 6.18277 41.259C6.18277 36.9483 7.18977 33.1147 9.20377 29.758C11.2178 26.4013 14.0268 23.7867 17.6308 21.914C21.2348 20.006 25.3688 19.052 30.0328 19.052C37.7354 19.052 43.3534 21.4723 46.8868 26.313L37.9298 33.256C36.7638 31.772 35.5094 30.7297 34.1668 30.129C32.8241 29.493 31.2518 29.175 29.4498 29.175C27.2944 29.175 25.4041 29.652 23.7788 30.606C22.1888 31.56 20.9521 32.9027 20.0688 34.634C19.2208 36.33 18.7968 38.2733 18.7968 40.464C18.7968 42.6547 19.5211 44.4213 20.9698 45.764C22.4184 47.0713 24.4148 47.725 26.9588 47.725C28.2308 47.725 29.4498 47.5483 30.6158 47.195L32.5768 37.443ZM82.5852 28.009L64.7772 57.583C63.1872 60.233 61.6325 62.2823 60.1132 63.731C58.5938 65.215 56.9685 66.2573 55.2372 66.858C53.5412 67.494 51.5448 67.812 49.2482 67.812C47.6582 67.812 46.0858 67.5823 44.5312 67.123C42.9412 66.6637 41.6692 66.063 40.7152 65.321L45.9092 57C47.2518 58.0247 48.7005 58.537 50.2552 58.537C51.4212 58.537 52.4105 58.1307 53.2232 57.318L46.8632 28.009H58.7882L61.7562 43.591L70.8722 28.009H82.5852ZM122.047 27.479C125.015 27.479 127.417 28.3447 129.255 30.076C131.127 31.772 132.064 34.21 132.064 37.39C132.064 38.5913 131.94 39.7927 131.693 40.994L128.513 57H116.535L119.45 42.531C119.591 41.9303 119.662 41.3297 119.662 40.729C119.662 39.669 119.432 38.874 118.973 38.344C118.513 37.814 117.877 37.549 117.065 37.549C114.627 37.549 113.072 39.245 112.401 42.637L109.539 57H97.5606L100.476 42.531C100.617 41.9303 100.688 41.3297 100.688 40.729C100.688 39.669 100.458 38.874 99.9986 38.344C99.5392 37.814 98.9032 37.549 98.0906 37.549C95.6879 37.549 94.1156 39.3157 93.3736 42.849L90.5646 57H78.5866L84.3636 28.009H95.6526L95.0696 30.818C96.2709 29.6873 97.5782 28.857 98.9916 28.327C100.405 27.7617 101.854 27.479 103.338 27.479C105.14 27.479 106.8 27.8677 108.32 28.645C109.839 29.4223 111.023 30.5707 111.871 32.09C113.143 30.606 114.644 29.4753 116.376 28.698C118.107 27.8853 119.997 27.479 122.047 27.479ZM157.983 19.9C162.929 19.9 166.763 20.9777 169.484 23.133C172.204 25.2883 173.565 28.3093 173.565 32.196C173.565 35.3053 172.787 38.0437 171.233 40.411C169.713 42.7783 167.523 44.6157 164.661 45.923C161.834 47.2303 158.548 47.884 154.803 47.884H148.39L146.588 57H134.08L141.5 19.9H157.983ZM155.439 38.238C157.17 38.238 158.513 37.814 159.467 36.966C160.421 36.0827 160.898 34.8637 160.898 33.309C160.898 30.8003 159.343 29.546 156.234 29.546H152.047L150.298 38.238H155.439ZM210.62 28.009L204.843 57H193.554L194.137 54.085C192.901 55.251 191.54 56.1167 190.056 56.682C188.572 57.2473 187.071 57.53 185.551 57.53C182.442 57.53 179.951 56.682 178.078 54.986C176.206 53.29 175.269 50.852 175.269 47.672C175.269 46.4707 175.393 45.2517 175.64 44.015L178.82 28.009H190.798L187.883 42.584C187.742 43.432 187.671 44.0327 187.671 44.386C187.671 46.4353 188.643 47.46 190.586 47.46C193.342 47.46 195.091 45.6227 195.833 41.948L198.642 28.009H210.62ZM217.947 17.674H229.925L222.081 57H210.103L217.947 17.674ZM239.474 57.53C236.966 57.53 234.545 57.2827 232.213 56.788C229.881 56.2933 228.062 55.6573 226.754 54.88L230.888 46.718C232.266 47.566 233.856 48.2197 235.658 48.679C237.496 49.1383 239.262 49.368 240.958 49.368C243.326 49.368 244.509 48.9087 244.509 47.99C244.509 47.6013 244.191 47.3187 243.555 47.142C242.955 46.93 241.983 46.7357 240.64 46.559C238.556 46.241 236.789 45.87 235.34 45.446C233.892 44.9867 232.62 44.2093 231.524 43.114C230.429 41.9833 229.881 40.4287 229.881 38.45C229.881 34.8813 231.401 32.1607 234.439 30.288C237.478 28.4153 241.4 27.479 246.205 27.479C248.325 27.479 250.357 27.6733 252.3 28.062C254.279 28.4153 256.028 28.9453 257.547 29.652L253.413 37.814C250.905 36.3653 248.025 35.641 244.774 35.641C243.502 35.641 242.566 35.7823 241.965 36.065C241.4 36.3477 241.117 36.6833 241.117 37.072C241.117 37.4607 241.418 37.761 242.018 37.973C242.619 38.1497 243.644 38.3617 245.092 38.609C247.142 38.927 248.873 39.3157 250.286 39.775C251.735 40.199 252.989 40.9763 254.049 42.107C255.145 43.2023 255.692 44.7217 255.692 46.665C255.692 48.997 254.968 50.9933 253.519 52.654C252.106 54.2793 250.163 55.4983 247.689 56.311C245.251 57.1237 242.513 57.53 239.474 57.53ZM291.384 40.252C291.384 41.842 291.172 43.5203 290.748 45.287H270.449C270.696 46.4883 271.279 47.354 272.198 47.884C273.117 48.414 274.389 48.679 276.014 48.679C278.417 48.679 280.519 48.0077 282.321 46.665L287.303 53.926C283.77 56.3287 279.547 57.53 274.636 57.53C271.491 57.53 268.7 56.9823 266.262 55.887C263.859 54.7917 261.987 53.237 260.644 51.223C259.337 49.209 258.683 46.8417 258.683 44.121C258.683 40.941 259.425 38.0967 260.909 35.588C262.428 33.044 264.548 31.0653 267.269 29.652C269.99 28.2033 273.117 27.479 276.65 27.479C279.689 27.479 282.321 28.0267 284.547 29.122C286.773 30.182 288.469 31.6837 289.635 33.627C290.801 35.535 291.384 37.7433 291.384 40.252ZM276.12 35.641C274.813 35.641 273.717 35.9943 272.834 36.701C271.986 37.3723 271.35 38.3087 270.926 39.51H280.413C280.413 38.3087 280.024 37.3723 279.247 36.701C278.47 35.9943 277.427 35.641 276.12 35.641Z" fill="#502CD9"/>
<path d="M21.2098 52.848C17.3938 52.848 14.0548 52.159 11.1928 50.781C8.33077 49.3677 6.10477 47.4243 4.51477 44.951C2.9601 42.4423 2.18277 39.545 2.18277 36.259C2.18277 33.0083 2.7481 30.0227 3.87877 27.302C5.04477 24.5813 6.68777 22.2317 8.80777 20.253C10.9278 18.2743 13.4364 16.755 16.3338 15.695C19.2664 14.5997 22.4994 14.052 26.0328 14.052C29.9194 14.052 33.2584 14.6703 36.0498 15.907C38.8764 17.1083 41.1554 18.9103 42.8868 21.313L33.9298 28.256C32.7284 26.7013 31.4564 25.6413 30.1138 25.076C28.7711 24.4753 27.2164 24.175 25.4498 24.175C23.8244 24.175 22.3581 24.4577 21.0508 25.023C19.7434 25.553 18.6128 26.3303 17.6588 27.355C16.7401 28.3443 16.0334 29.528 15.5388 30.906C15.0441 32.284 14.7968 33.8033 14.7968 35.464C14.7968 36.9127 15.1148 38.1847 15.7508 39.28C16.4221 40.3753 17.3584 41.2233 18.5598 41.824C19.7964 42.4247 21.2628 42.725 22.9588 42.725C24.3721 42.725 25.7854 42.4953 27.1988 42.036C28.6121 41.5413 30.0608 40.711 31.5448 39.545L36.2618 48.449C34.3184 49.8623 32.0571 50.9577 29.4778 51.735C26.8984 52.477 24.1424 52.848 21.2098 52.848ZM25.7678 46.541L28.5768 32.443H39.4418L36.2618 48.449L25.7678 46.541ZM45.2482 62.812C43.6582 62.812 42.0858 62.5823 40.5312 62.123C38.9412 61.6637 37.6692 61.063 36.7152 60.321L41.9092 52C42.5098 52.4593 43.1812 52.8303 43.9232 53.113C44.6652 53.3957 45.4425 53.537 46.2552 53.537C47.2092 53.537 47.9865 53.3073 48.5872 52.848C49.1878 52.424 49.7532 51.7703 50.2832 50.887L52.1382 47.813L53.0392 46.647L66.8722 23.009H78.5852L60.7772 52.583C59.1872 55.233 57.6325 57.3 56.1132 58.784C54.5938 60.268 52.9508 61.3103 51.1842 61.911C49.4528 62.5117 47.4742 62.812 45.2482 62.812ZM49.4352 53.325L42.8632 23.009H54.7882L59.0812 45.587L49.4352 53.325ZM118.047 22.479C120.273 22.479 122.216 22.9913 123.877 24.016C125.537 25.0053 126.739 26.507 127.481 28.521C128.223 30.4997 128.293 32.9907 127.693 35.994L124.513 52H112.535L115.45 37.531C115.803 35.7997 115.732 34.5453 115.238 33.768C114.743 32.9553 114.019 32.549 113.065 32.549C111.969 32.549 111.015 32.9377 110.203 33.715C109.39 34.457 108.789 35.7643 108.401 37.637L105.539 52H93.5606L96.4756 37.531C96.8289 35.7997 96.7582 34.5453 96.2636 33.768C95.7689 32.9553 95.0446 32.549 94.0906 32.549C92.9952 32.549 92.0236 32.9553 91.1756 33.768C90.3629 34.5453 89.7622 35.9057 89.3736 37.849L86.5646 52H74.5866L80.3636 23.009H91.6526L90.4336 29.104L88.6846 28.892C89.9919 26.7013 91.5996 25.0937 93.5076 24.069C95.4156 23.009 97.3589 22.479 99.3376 22.479C100.928 22.479 102.412 22.797 103.79 23.433C105.203 24.0337 106.387 24.97 107.341 26.242C108.295 27.4787 108.86 29.0687 109.037 31.012L105.91 30.005C107.146 27.6377 108.807 25.8003 110.892 24.493C112.976 23.1503 115.361 22.479 118.047 22.479ZM130.08 52L137.5 14.9H153.983C158.965 14.9 162.798 15.9777 165.484 18.133C168.204 20.2883 169.565 23.3093 169.565 27.196C169.565 30.3053 168.787 33.0437 167.233 35.411C165.713 37.7783 163.54 39.6157 160.714 40.923C157.922 42.2303 154.619 42.884 150.803 42.884H138.825L145.503 37.425L142.588 52H130.08ZM145.185 38.909L140.786 33.238H151.439C153.17 33.238 154.513 32.814 155.467 31.966C156.421 31.0827 156.898 29.8637 156.898 28.309C156.898 26.9663 156.474 26.0123 155.626 25.447C154.813 24.8463 153.682 24.546 152.234 24.546H142.535L149.213 18.716L145.185 38.909ZM181.551 52.53C179.219 52.53 177.188 52.0353 175.456 51.046C173.76 50.0213 172.541 48.5197 171.799 46.541C171.093 44.527 171.04 42.0183 171.64 39.015L174.82 23.009H186.798L183.883 37.584C183.565 39.174 183.636 40.393 184.095 41.241C184.555 42.0537 185.385 42.46 186.586 42.46C187.929 42.46 189.042 42.0183 189.925 41.135C190.844 40.2163 191.48 38.8207 191.833 36.948L194.642 23.009H206.62L200.843 52H189.554L191.197 43.891L192.575 46.117C191.197 48.343 189.501 49.9683 187.487 50.993C185.509 52.0177 183.53 52.53 181.551 52.53ZM206.103 52L213.947 12.674H225.925L218.081 52H206.103ZM235.474 52.53C232.895 52.53 230.439 52.2827 228.107 51.788C225.811 51.258 224.026 50.622 222.754 49.88L226.888 41.718C228.337 42.6013 229.962 43.2727 231.764 43.732C233.602 44.156 235.333 44.368 236.958 44.368C238.301 44.368 239.22 44.2443 239.714 43.997C240.244 43.7143 240.509 43.3787 240.509 42.99C240.509 42.566 240.156 42.2657 239.449 42.089C238.743 41.877 237.824 41.7003 236.693 41.559C235.598 41.4177 234.432 41.2057 233.195 40.923C231.959 40.6403 230.775 40.234 229.644 39.704C228.549 39.1387 227.648 38.3613 226.941 37.372C226.235 36.3827 225.881 35.0753 225.881 33.45C225.881 30.9413 226.606 28.892 228.054 27.302C229.538 25.6767 231.517 24.4753 233.99 23.698C236.464 22.8853 239.202 22.479 242.205 22.479C244.325 22.479 246.357 22.6733 248.3 23.062C250.279 23.4153 252.028 23.9453 253.547 24.652L249.413 32.814C247.894 31.9307 246.375 31.3477 244.855 31.065C243.371 30.7823 242.011 30.641 240.774 30.641C239.396 30.641 238.442 30.8 237.912 31.118C237.382 31.4007 237.117 31.7187 237.117 32.072C237.117 32.496 237.471 32.814 238.177 33.026C238.884 33.238 239.785 33.4323 240.88 33.609C241.976 33.7503 243.142 33.9623 244.378 34.245C245.65 34.4923 246.834 34.8987 247.929 35.464C249.025 35.994 249.926 36.7537 250.632 37.743C251.339 38.7323 251.692 40.0397 251.692 41.665C251.692 44.0677 250.95 46.0817 249.466 47.707C248.018 49.3323 246.057 50.5513 243.583 51.364C241.145 52.1413 238.442 52.53 235.474 52.53ZM270.636 52.53C267.456 52.53 264.665 51.9823 262.262 50.887C259.895 49.7917 258.04 48.237 256.697 46.223C255.354 44.209 254.683 41.8417 254.683 39.121C254.683 35.941 255.425 33.0967 256.909 30.588C258.393 28.0793 260.478 26.1007 263.163 24.652C265.884 23.2033 269.046 22.479 272.65 22.479C275.759 22.479 278.409 23.0267 280.6 24.122C282.791 25.2173 284.469 26.719 285.635 28.627C286.801 30.535 287.384 32.7433 287.384 35.252C287.384 36.1353 287.313 37.001 287.172 37.849C287.066 38.697 286.925 39.5097 286.748 40.287H264.223L265.336 34.51H281.236L276.254 36.047C276.537 34.9163 276.519 33.9623 276.201 33.185C275.918 32.3723 275.424 31.754 274.717 31.33C274.01 30.8707 273.145 30.641 272.12 30.641C270.671 30.641 269.523 31.0297 268.675 31.807C267.827 32.5843 267.209 33.5913 266.82 34.828C266.467 36.0647 266.29 37.3543 266.29 38.697C266.29 40.499 266.767 41.7887 267.721 42.566C268.71 43.308 270.141 43.679 272.014 43.679C273.109 43.679 274.205 43.52 275.3 43.202C276.395 42.8487 277.402 42.3363 278.321 41.665L283.303 48.926C281.324 50.2687 279.257 51.205 277.102 51.735C274.982 52.265 272.827 52.53 270.636 52.53Z" fill="white"/>
</svg>
